<svg width="26" height="32" viewBox="0 0 26 32" fill="none" xmlns="http://www.w3.org/2000/svg">
<path d="M25.19 13.71H23.67V24.38H25.19V13.71Z" fill="#000001"/>
<path d="M22.14 27.43H6.91V25.91H5.38V27.43H3.86V32H25.19V27.43H23.67V24.38H22.14V27.43ZM22.14 30.48H19.1V28.95H22.14V30.48Z" fill="#000001"/>
<path d="M23.67 12.19H22.14V13.71H23.67V12.19Z" fill="#000001"/>
<path d="M20.62 13.71H19.1V18.29H20.62V13.71Z" fill="#000001"/>
<path d="M22.14 10.67H19.1V12.19H22.14V10.67Z" fill="#000001"/>
<path d="M16.05 13.71H14.53V18.29H16.05V13.71Z" fill="#000001"/>
<path d="M11.48 13.71H9.95V18.29H11.48V13.71Z" fill="#000001"/>
<path d="M9.95 10.67H19.1V9.14H11.48V1.52H9.95V10.67Z" fill="#000001"/>
<path d="M9.95 0H6.91V1.52H9.95V0Z" fill="#000001"/>
<path d="M5.38 19.81H6.91V1.52H5.38V12.19H3.86V13.71H5.38V19.81Z" fill="#000001"/>
<path d="M5.38 24.38H3.86V25.91H5.38V24.38Z" fill="#000001"/>
<path d="M3.86 21.33H2.34V24.38H3.86V21.33Z" fill="#000001"/>
<path d="M3.86 13.71H2.34V15.24H3.86V13.71Z" fill="#000001"/>
<path d="M2.34 15.24H0.809998V21.33H2.34V15.24Z" fill="#000001"/>
</svg>
