<?xml version="1.0" encoding="UTF-8"?>
<svg version="1.1" xmlns="http://www.w3.org/2000/svg" width="176" height="112">
<path d="M0 0 C3.96 0 7.92 0 12 0 C12 5.28 12 10.56 12 16 C29.16 16 46.32 16 64 16 C64 10.72 64 5.44 64 0 C84 0 104 0 124 0 C124 5.28 124 10.56 124 16 C114 16 104 16 94 16 C94 26.56 94 37.12 94 48 C62.32 48 30.64 48 -2 48 C-2 37.44 -2 26.88 -2 16 C-1.34 16 -0.68 16 0 16 C0 10.72 0 5.44 0 0 Z M77 14 C76.67 14.66 76.34 15.32 76 16 C76.66 16 77.32 16 78 16 C77.67 15.34 77.34 14.68 77 14 Z " fill="#C0D370" transform="translate(2,64)"/>
<path d="M0 0 C1.41694656 -0.01441132 1.41694656 -0.01441132 2.86251831 -0.02911377 C4.39067673 -0.03548859 4.39067673 -0.03548859 5.94970703 -0.04199219 C6.99901398 -0.04769226 8.04832092 -0.05339233 9.12942505 -0.05926514 C11.3502705 -0.06871405 13.57112997 -0.07524869 15.79199219 -0.07910156 C19.18726066 -0.08880926 22.58192435 -0.11983503 25.97705078 -0.15136719 C28.13459927 -0.15789714 30.29215209 -0.16314764 32.44970703 -0.16699219 C33.46443085 -0.17933899 34.47915466 -0.19168579 35.52462769 -0.20440674 C44.56445422 -0.17587755 44.56445422 -0.17587755 48.33251953 3.16113281 C49.28670353 6.02368482 49.46921751 7.85487909 49.49365234 10.82861328 C49.50325989 11.77324432 49.51286743 12.71787537 49.52276611 13.69113159 C49.52701599 14.70990387 49.53126587 15.72867615 49.53564453 16.77832031 C49.5413446 17.82762726 49.54704468 18.8769342 49.55291748 19.95803833 C49.56236639 22.17888379 49.56890103 24.39974325 49.57275391 26.62060547 C49.58246161 30.01587394 49.61348737 33.41053763 49.64501953 36.80566406 C49.65154948 38.96321255 49.65679999 41.12076537 49.66064453 43.27832031 C49.67299133 44.29304413 49.68533813 45.30776794 49.69805908 46.35324097 C49.6695299 55.39306751 49.6695299 55.39306751 46.33251953 59.16113281 C43.46996753 60.11531681 41.63877325 60.29783079 38.66503906 60.32226562 C37.2480925 60.33667694 37.2480925 60.33667694 35.80252075 60.35137939 C34.78374847 60.35562927 33.7649762 60.35987915 32.71533203 60.36425781 C31.14137161 60.37280792 31.14137161 60.37280792 29.53561401 60.38153076 C27.31476856 60.39097968 25.09390909 60.39751431 22.87304688 60.40136719 C19.47777841 60.41107489 16.08311472 60.44210066 12.68798828 60.47363281 C10.53043979 60.48016277 8.37288698 60.48541327 6.21533203 60.48925781 C4.69324631 60.50777802 4.69324631 60.50777802 3.14041138 60.52667236 C-5.89941516 60.49814318 -5.89941516 60.49814318 -9.66748047 57.16113281 C-10.62166447 54.29858081 -10.80417844 52.46738653 -10.82861328 49.49365234 C-10.8430246 48.07670578 -10.8430246 48.07670578 -10.85772705 46.63113403 C-10.86197693 45.61236176 -10.86622681 44.59358948 -10.87060547 43.54394531 C-10.87630554 42.49463837 -10.88200562 41.44533142 -10.88787842 40.36422729 C-10.89732733 38.14338184 -10.90386197 35.92252237 -10.90771484 33.70166016 C-10.91742254 30.30639169 -10.94844831 26.911728 -10.97998047 23.51660156 C-10.98651042 21.35905307 -10.99176092 19.20150026 -10.99560547 17.04394531 C-11.00795227 16.0292215 -11.02029907 15.01449768 -11.03302002 13.96902466 C-11.00449083 4.92919812 -11.00449083 4.92919812 -7.66748047 1.16113281 C-4.80492846 0.20694881 -2.97373419 0.02443484 0 0 Z M2.33251953 12.16113281 C2.00251953 12.82113281 1.67251953 13.48113281 1.33251953 14.16113281 C1.99251953 14.16113281 2.65251953 14.16113281 3.33251953 14.16113281 C3.00251953 13.50113281 2.67251953 12.84113281 2.33251953 12.16113281 Z M18.33251953 12.16113281 C18.00251953 12.82113281 17.67251953 13.48113281 17.33251953 14.16113281 C18.65251953 13.83113281 19.97251953 13.50113281 21.33251953 13.16113281 C20.34251953 12.83113281 19.35251953 12.50113281 18.33251953 12.16113281 Z M35.33251953 12.16113281 C35.33251953 12.82113281 35.33251953 13.48113281 35.33251953 14.16113281 C35.99251953 13.83113281 36.65251953 13.50113281 37.33251953 13.16113281 C36.67251953 12.83113281 36.01251953 12.50113281 35.33251953 12.16113281 Z M2.33251953 28.16113281 C2.33251953 29.48113281 2.33251953 30.80113281 2.33251953 32.16113281 C2.66251953 30.84113281 2.99251953 29.52113281 3.33251953 28.16113281 C3.00251953 28.16113281 2.67251953 28.16113281 2.33251953 28.16113281 Z M18.33251953 28.16113281 C18.33251953 29.48113281 18.33251953 30.80113281 18.33251953 32.16113281 C19.32251953 31.83113281 20.31251953 31.50113281 21.33251953 31.16113281 C21.00251953 30.17113281 20.67251953 29.18113281 20.33251953 28.16113281 C19.67251953 28.16113281 19.01251953 28.16113281 18.33251953 28.16113281 Z M35.33251953 28.16113281 C35.66251953 29.48113281 35.99251953 30.80113281 36.33251953 32.16113281 C36.33251953 30.84113281 36.33251953 29.52113281 36.33251953 28.16113281 C36.00251953 28.16113281 35.67251953 28.16113281 35.33251953 28.16113281 Z M1.33251953 46.16113281 C1.99251953 46.82113281 2.65251953 47.48113281 3.33251953 48.16113281 C3.33251953 47.50113281 3.33251953 46.84113281 3.33251953 46.16113281 C2.67251953 46.16113281 2.01251953 46.16113281 1.33251953 46.16113281 Z M17.33251953 46.16113281 C17.66251953 46.82113281 17.99251953 47.48113281 18.33251953 48.16113281 C19.32251953 47.83113281 20.31251953 47.50113281 21.33251953 47.16113281 C20.01251953 46.83113281 18.69251953 46.50113281 17.33251953 46.16113281 Z M35.33251953 46.16113281 C35.66251953 46.82113281 35.99251953 47.48113281 36.33251953 48.16113281 C36.66251953 47.50113281 36.99251953 46.84113281 37.33251953 46.16113281 C36.67251953 46.16113281 36.01251953 46.16113281 35.33251953 46.16113281 Z " fill="#BFD36F" transform="translate(76.66748046875,1.8388671875)"/>
<path d="M0 0 C1.93166016 0.01740234 1.93166016 0.01740234 3.90234375 0.03515625 C5.19269531 0.04417969 6.48304688 0.05320313 7.8125 0.0625 C8.81152344 0.07410156 9.81054688 0.08570313 10.83984375 0.09765625 C10.83984375 10.76432292 10.83984375 21.43098958 10.83984375 32.09765625 C12.42335054 32.09765625 14.0068543 32.06781791 15.58984375 32.02734375 C16.66234375 32.00929688 17.73484375 31.99125 18.83984375 31.97265625 C20.44859375 31.93785156 20.44859375 31.93785156 22.08984375 31.90234375 C24.83984375 32.09765625 24.83984375 32.09765625 26.83984375 34.09765625 C27.03515625 36.77734375 27.03515625 36.77734375 26.96484375 39.97265625 C26.94679687 41.02195313 26.92875 42.07125 26.91015625 43.15234375 C26.88695312 44.12429687 26.86375 45.09625 26.83984375 46.09765625 C26.83984375 48.41287905 26.85490142 50.7284054 26.91015625 53.04296875 C26.92820313 54.09226563 26.94625 55.1415625 26.96484375 56.22265625 C26.98804688 57.27710938 27.01125 58.3315625 27.03515625 59.41796875 C26.83984375 62.09765625 26.83984375 62.09765625 24.83984375 64.09765625 C22.125 64.328125 22.125 64.328125 18.90234375 64.28515625 C17.84144531 64.27871094 16.78054687 64.27226563 15.6875 64.265625 C12.83984375 64.09765625 12.83984375 64.09765625 9.83984375 63.09765625 C9.50984375 64.08765625 9.17984375 65.07765625 8.83984375 66.09765625 C9.49984375 66.09765625 10.15984375 66.09765625 10.83984375 66.09765625 C10.83984375 70.05765625 10.83984375 74.01765625 10.83984375 78.09765625 C10.17984375 78.09765625 9.51984375 78.09765625 8.83984375 78.09765625 C8.83984375 78.75765625 8.83984375 79.41765625 8.83984375 80.09765625 C4.87984375 80.09765625 0.91984375 80.09765625 -3.16015625 80.09765625 C-3.16015625 79.43765625 -3.16015625 78.77765625 -3.16015625 78.09765625 C-4.48015625 78.09765625 -5.80015625 78.09765625 -7.16015625 78.09765625 C-7.16015625 78.75765625 -7.16015625 79.41765625 -7.16015625 80.09765625 C-11.12015625 80.09765625 -15.08015625 80.09765625 -19.16015625 80.09765625 C-19.16015625 79.43765625 -19.16015625 78.77765625 -19.16015625 78.09765625 C-19.82015625 78.09765625 -20.48015625 78.09765625 -21.16015625 78.09765625 C-21.16015625 74.13765625 -21.16015625 70.17765625 -21.16015625 66.09765625 C-20.50015625 66.09765625 -19.84015625 66.09765625 -19.16015625 66.09765625 C-19.16015625 65.43765625 -19.16015625 64.77765625 -19.16015625 64.09765625 C-15.20015625 64.09765625 -11.24015625 64.09765625 -7.16015625 64.09765625 C-7.16015625 64.75765625 -7.16015625 65.41765625 -7.16015625 66.09765625 C-5.84015625 66.09765625 -4.52015625 66.09765625 -3.16015625 66.09765625 C-3.49015625 65.10765625 -3.82015625 64.11765625 -4.16015625 63.09765625 C-9.77015625 62.76765625 -15.38015625 62.43765625 -21.16015625 62.09765625 C-21.16015625 42.09765625 -21.16015625 22.09765625 -21.16015625 2.09765625 C-19.33677734 2.00677734 -19.33677734 2.00677734 -17.4765625 1.9140625 C-15.89191397 1.82967293 -14.30727923 1.74502415 -12.72265625 1.66015625 C-11.92021484 1.62083984 -11.11777344 1.58152344 -10.29101562 1.54101562 C-6.492309 1.33264775 -3.55216769 0.10977032 0 0 Z M-6.16015625 14.09765625 C-6.49015625 14.75765625 -6.82015625 15.41765625 -7.16015625 16.09765625 C-6.50015625 16.09765625 -5.84015625 16.09765625 -5.16015625 16.09765625 C-5.49015625 15.43765625 -5.82015625 14.77765625 -6.16015625 14.09765625 Z M-6.16015625 30.09765625 C-6.16015625 31.41765625 -6.16015625 32.73765625 -6.16015625 34.09765625 C-5.17015625 33.76765625 -4.18015625 33.43765625 -3.16015625 33.09765625 C-3.49015625 32.10765625 -3.82015625 31.11765625 -4.16015625 30.09765625 C-4.82015625 30.09765625 -5.48015625 30.09765625 -6.16015625 30.09765625 Z M-5.16015625 46.09765625 C-5.16015625 46.75765625 -5.16015625 47.41765625 -5.16015625 48.09765625 C-6.15015625 48.59265625 -6.15015625 48.59265625 -7.16015625 49.09765625 C-5.84015625 49.09765625 -4.52015625 49.09765625 -3.16015625 49.09765625 C-3.49015625 48.10765625 -3.82015625 47.11765625 -4.16015625 46.09765625 C-4.49015625 46.09765625 -4.82015625 46.09765625 -5.16015625 46.09765625 Z " fill="#BFD36F" transform="translate(149.16015625,-0.09765625)"/>
<path d="M0 0 C2.23654438 -0.00970091 4.47216746 -0.04073334 6.70849609 -0.07226562 C8.13687607 -0.07879678 9.5652626 -0.08404681 10.99365234 -0.08789062 C12.28899902 -0.09723633 13.5843457 -0.10658203 14.91894531 -0.11621094 C18.60660923 0.2639606 20.48897203 0.94929771 23.37646484 3.24023438 C25.14798808 8.55480408 24.60206774 14.2977105 24.61669922 19.86376953 C24.62640013 22.10031391 24.65743256 24.33593699 24.68896484 26.57226562 C24.695496 28.00064561 24.70074603 29.42903213 24.70458984 30.85742188 C24.7186084 32.80044189 24.7186084 32.80044189 24.73291016 34.78271484 C24.35273862 38.47037876 23.66740151 40.35274156 21.37646484 43.24023438 C16.06189514 45.01175761 10.31898872 44.46583727 4.75292969 44.48046875 C2.51638531 44.49016966 0.28076223 44.52120209 -1.95556641 44.55273438 C-3.38394639 44.55926553 -4.81233292 44.56451556 -6.24072266 44.56835938 C-7.53606934 44.57770508 -8.83141602 44.58705078 -10.16601562 44.59667969 C-13.85367955 44.21650815 -15.73604234 43.53117104 -18.62353516 41.24023438 C-20.39505839 35.92566467 -19.84913805 30.18275825 -19.86376953 24.61669922 C-19.87347044 22.38015484 -19.90450287 20.14453176 -19.93603516 17.90820312 C-19.94256631 16.47982314 -19.94781634 15.05143662 -19.95166016 13.62304688 C-19.96100586 12.3277002 -19.97035156 11.03235352 -19.97998047 9.69775391 C-19.59980893 6.01008999 -18.91447182 4.12772719 -16.62353516 1.24023438 C-11.30896545 -0.53128886 -5.56605904 0.01463148 0 0 Z " fill="#BFD36F" transform="translate(21.62353515625,1.759765625)"/>
<path d="M0 0 C1.41694656 -0.01441132 1.41694656 -0.01441132 2.86251831 -0.02911377 C4.39067673 -0.03548859 4.39067673 -0.03548859 5.94970703 -0.04199219 C6.99901398 -0.04769226 8.04832092 -0.05339233 9.12942505 -0.05926514 C11.3502705 -0.06871405 13.57112997 -0.07524869 15.79199219 -0.07910156 C19.18726066 -0.08880926 22.58192435 -0.11983503 25.97705078 -0.15136719 C28.13459927 -0.15789714 30.29215209 -0.16314764 32.44970703 -0.16699219 C33.46443085 -0.17933899 34.47915466 -0.19168579 35.52462769 -0.20440674 C44.56445422 -0.17587755 44.56445422 -0.17587755 48.33251953 3.16113281 C49.28670353 6.02368482 49.46921751 7.85487909 49.49365234 10.82861328 C49.50325989 11.77324432 49.51286743 12.71787537 49.52276611 13.69113159 C49.52701599 14.70990387 49.53126587 15.72867615 49.53564453 16.77832031 C49.5413446 17.82762726 49.54704468 18.8769342 49.55291748 19.95803833 C49.56236639 22.17888379 49.56890103 24.39974325 49.57275391 26.62060547 C49.58246161 30.01587394 49.61348737 33.41053763 49.64501953 36.80566406 C49.65154948 38.96321255 49.65679999 41.12076537 49.66064453 43.27832031 C49.67299133 44.29304413 49.68533813 45.30776794 49.69805908 46.35324097 C49.6695299 55.39306751 49.6695299 55.39306751 46.33251953 59.16113281 C43.46996753 60.11531681 41.63877325 60.29783079 38.66503906 60.32226562 C37.2480925 60.33667694 37.2480925 60.33667694 35.80252075 60.35137939 C34.78374847 60.35562927 33.7649762 60.35987915 32.71533203 60.36425781 C31.14137161 60.37280792 31.14137161 60.37280792 29.53561401 60.38153076 C27.31476856 60.39097968 25.09390909 60.39751431 22.87304688 60.40136719 C19.47777841 60.41107489 16.08311472 60.44210066 12.68798828 60.47363281 C10.53043979 60.48016277 8.37288698 60.48541327 6.21533203 60.48925781 C4.69324631 60.50777802 4.69324631 60.50777802 3.14041138 60.52667236 C-5.89941516 60.49814318 -5.89941516 60.49814318 -9.66748047 57.16113281 C-10.62166447 54.29858081 -10.80417844 52.46738653 -10.82861328 49.49365234 C-10.8430246 48.07670578 -10.8430246 48.07670578 -10.85772705 46.63113403 C-10.86197693 45.61236176 -10.86622681 44.59358948 -10.87060547 43.54394531 C-10.87630554 42.49463837 -10.88200562 41.44533142 -10.88787842 40.36422729 C-10.89732733 38.14338184 -10.90386197 35.92252237 -10.90771484 33.70166016 C-10.91742254 30.30639169 -10.94844831 26.911728 -10.97998047 23.51660156 C-10.98651042 21.35905307 -10.99176092 19.20150026 -10.99560547 17.04394531 C-11.00795227 16.0292215 -11.02029907 15.01449768 -11.03302002 13.96902466 C-11.00449083 4.92919812 -11.00449083 4.92919812 -7.66748047 1.16113281 C-4.80492846 0.20694881 -2.97373419 0.02443484 0 0 Z M11.08251953 3.66113281 C7.93053351 4.08139761 5.29304131 4.10768954 2.14501953 3.97363281 C-1.01511207 3.96883018 -2.40301202 4.01922291 -5.22998047 5.53613281 C-8.59162366 11.6747856 -7.75914723 18.47467387 -6.66748047 25.16113281 C-6.99748047 26.15113281 -7.32748047 27.14113281 -7.66748047 28.16113281 C-7.79904574 31.8449605 -7.83730185 34.65166866 -6.66748047 38.16113281 C-6.99128173 39.49681303 -7.32405598 40.83036292 -7.66748047 42.16113281 C-7.33748047 42.82113281 -7.00748047 43.48113281 -6.66748047 44.16113281 C-6.87373047 44.88300781 -7.07998047 45.60488281 -7.29248047 46.34863281 C-7.82861527 50.36964379 -6.43788156 52.54951459 -4.66748047 56.16113281 C4.91686492 57.58661272 4.91686492 57.58661272 14.33251953 56.16113281 C15.46689453 56.32613281 16.60126953 56.49113281 17.77001953 56.66113281 C21.0619504 57.1231582 22.28927816 56.94648542 25.33251953 56.16113281 C27.33376314 56.48691666 29.33354825 56.82168486 31.33251953 57.16113281 C38.15659597 57.68320963 38.15659597 57.68320963 44.33251953 55.16113281 C45.07797704 51.86869547 45.33251953 48.84379369 45.33251953 45.47363281 C45.33251953 43.16113281 45.33251953 43.16113281 45.89501953 40.97363281 C46.55894056 39.0768105 46.55894056 39.0768105 45.33251953 37.16113281 C45.82751953 36.17113281 45.82751953 36.17113281 46.33251953 35.16113281 C46.5242662 30.5840535 46.5242662 30.5840535 45.77001953 26.09863281 C45.14152676 23.3153077 45.8473982 20.96405609 46.33251953 18.16113281 C46.65737744 13.568003 46.90607171 9.13844072 44.33251953 5.16113281 C39.44738236 2.33289551 34.54662555 3.36355489 29.16845703 3.93457031 C26.04396359 4.18418549 23.38894153 3.81608038 20.33251953 3.16113281 C17.12686838 3.02472213 14.25717821 3.17272378 11.08251953 3.66113281 Z " fill="#A4C263" transform="translate(76.66748046875,1.8388671875)"/>
<path d="M0 0 C2.23654438 -0.00970091 4.47216746 -0.04073334 6.70849609 -0.07226562 C8.13687607 -0.07879678 9.5652626 -0.08404681 10.99365234 -0.08789062 C12.28899902 -0.09723633 13.5843457 -0.10658203 14.91894531 -0.11621094 C18.60660923 0.2639606 20.48897203 0.94929771 23.37646484 3.24023438 C25.14798808 8.55480408 24.60206774 14.2977105 24.61669922 19.86376953 C24.62640013 22.10031391 24.65743256 24.33593699 24.68896484 26.57226562 C24.695496 28.00064561 24.70074603 29.42903213 24.70458984 30.85742188 C24.7186084 32.80044189 24.7186084 32.80044189 24.73291016 34.78271484 C24.35273862 38.47037876 23.66740151 40.35274156 21.37646484 43.24023438 C16.06189514 45.01175761 10.31898872 44.46583727 4.75292969 44.48046875 C2.51638531 44.49016966 0.28076223 44.52120209 -1.95556641 44.55273438 C-3.38394639 44.55926553 -4.81233292 44.56451556 -6.24072266 44.56835938 C-7.53606934 44.57770508 -8.83141602 44.58705078 -10.16601562 44.59667969 C-13.85367955 44.21650815 -15.73604234 43.53117104 -18.62353516 41.24023438 C-20.39505839 35.92566467 -19.84913805 30.18275825 -19.86376953 24.61669922 C-19.87347044 22.38015484 -19.90450287 20.14453176 -19.93603516 17.90820312 C-19.94256631 16.47982314 -19.94781634 15.05143662 -19.95166016 13.62304688 C-19.96100586 12.3277002 -19.97035156 11.03235352 -19.97998047 9.69775391 C-19.59980893 6.01008999 -18.91447182 4.12772719 -16.62353516 1.24023438 C-11.30896545 -0.53128886 -5.56605904 0.01463148 0 0 Z M-12.62353516 5.24023438 C-15.37536058 7.62514975 -15.85620548 9.88272242 -16.37353516 13.36523438 C-16.93695493 17.03328735 -16.93695493 17.03328735 -15.62353516 19.24023438 C-15.78853516 19.85898437 -15.95353516 20.47773438 -16.12353516 21.11523438 C-16.79047507 23.22171764 -16.79047507 23.22171764 -16.12353516 25.24023438 C-15.52951217 27.61632633 -16.03755814 28.89632633 -16.62353516 31.24023438 C-16.1114853 34.41494346 -14.85654099 37.28102037 -13.62353516 40.24023438 C-11.99939138 40.43501177 -10.37417093 40.62082896 -8.74853516 40.80273438 C-7.84361328 40.90714844 -6.93869141 41.0115625 -6.00634766 41.11914062 C-3.60700458 41.43698289 -3.60700458 41.43698289 -1.62353516 40.24023438 C-0.86041016 40.40523437 -0.09728516 40.57023437 0.68896484 40.74023438 C3.34745962 41.40730633 3.34745962 41.40730633 5.87646484 40.74023438 C8.37646484 40.24023438 8.37646484 40.24023438 10.81396484 40.80273438 C14.42736165 41.41965578 16.18946889 41.08160981 19.37646484 39.24023438 C21.78054283 34.13703246 21.43805201 29.0616353 20.59130859 23.63867188 C20.33925593 20.82484754 20.6449267 18.28999706 21.00146484 15.49023438 C21.35666026 12.10403806 21.44647402 10.44202553 20.31396484 7.17773438 C17.73140689 4.59517642 15.9733396 3.91888999 12.37646484 3.24023438 C9.6498027 3.38483009 7.08156949 3.7967746 4.37646484 4.24023438 C1.37646484 4.24023438 1.37646484 4.24023438 -1.87353516 3.61523438 C-6.0919505 3.19339284 -8.70458173 3.65758011 -12.62353516 5.24023438 Z " fill="#A4C263" transform="translate(21.62353515625,1.759765625)"/>
<path d="M0 0 C2.23654438 -0.00970091 4.47216746 -0.04073334 6.70849609 -0.07226562 C8.13687607 -0.07879678 9.5652626 -0.08404681 10.99365234 -0.08789062 C12.28899902 -0.09723633 13.5843457 -0.10658203 14.91894531 -0.11621094 C18.59881765 0.26315735 20.47719346 0.98307446 23.37646484 3.24023438 C24.37646484 5.74023438 24.37646484 5.74023438 24.37646484 8.24023438 C22.56329335 10.77867446 21.39179409 11.23512463 18.37646484 12.24023438 C13.83775328 12.46886738 9.29667475 12.46852462 4.75292969 12.48046875 C2.51638531 12.49016966 0.28076223 12.52120209 -1.95556641 12.55273438 C-3.38394639 12.55926553 -4.81233292 12.56451556 -6.24072266 12.56835938 C-7.53606934 12.57770508 -8.83141602 12.58705078 -10.16601562 12.59667969 C-13.84588797 12.2173114 -15.72426377 11.49739429 -18.62353516 9.24023438 C-19.62353516 6.74023438 -19.62353516 6.74023438 -19.62353516 4.24023438 C-15.32946858 -1.77145883 -6.57438858 0.01728207 0 0 Z " fill="#91B45E" transform="translate(21.62353515625,49.759765625)"/>
<path d="M0 0 C2.375 0.125 2.375 0.125 5 1 C8.15575075 5.03845851 8.38514262 8.27310616 8.3984375 13.3125 C8.40274277 14.3495105 8.40274277 14.3495105 8.40713501 15.4074707 C8.40916839 16.86312687 8.40368938 18.31881081 8.39111328 19.77441406 C8.37504732 21.99346425 8.39098461 24.21069347 8.41015625 26.4296875 C8.40817369 27.84896232 8.40432974 29.26823602 8.3984375 30.6875 C8.39505371 31.97011719 8.39166992 33.25273438 8.38818359 34.57421875 C7.97531465 38.21785208 7.23158671 40.11984379 5 43 C2.5 44 2.5 44 0 44 C-2.53844009 42.18682851 -2.99489025 41.01532925 -4 38 C-4.22863301 33.46128843 -4.22829025 28.9202099 -4.24023438 24.37646484 C-4.24993528 22.13992047 -4.28096772 19.90429739 -4.3125 17.66796875 C-4.31903116 16.23958877 -4.32428119 14.81120224 -4.328125 13.3828125 C-4.3374707 12.08746582 -4.34681641 10.79211914 -4.35644531 9.45751953 C-3.94769575 5.49264877 -2.83657259 2.83657259 0 0 Z " fill="#A4C263" transform="translate(54,2)"/>
<path d="M0 0 C1.41694656 -0.01441132 1.41694656 -0.01441132 2.86251831 -0.02911377 C4.39067673 -0.03548859 4.39067673 -0.03548859 5.94970703 -0.04199219 C6.99901398 -0.04769226 8.04832092 -0.05339233 9.12942505 -0.05926514 C11.3502705 -0.06871405 13.57112997 -0.07524869 15.79199219 -0.07910156 C19.18726066 -0.08880926 22.58192435 -0.11983503 25.97705078 -0.15136719 C28.13459927 -0.15789714 30.29215209 -0.16314764 32.44970703 -0.16699219 C33.46443085 -0.17933899 34.47915466 -0.19168579 35.52462769 -0.20440674 C44.56445422 -0.17587755 44.56445422 -0.17587755 48.33251953 3.16113281 C49.28670353 6.02368482 49.46921751 7.85487909 49.49365234 10.82861328 C49.50325989 11.77324432 49.51286743 12.71787537 49.52276611 13.69113159 C49.52701599 14.70990387 49.53126587 15.72867615 49.53564453 16.77832031 C49.5413446 17.82762726 49.54704468 18.8769342 49.55291748 19.95803833 C49.56236639 22.17888379 49.56890103 24.39974325 49.57275391 26.62060547 C49.58246161 30.01587394 49.61348737 33.41053763 49.64501953 36.80566406 C49.65154948 38.96321255 49.65679999 41.12076537 49.66064453 43.27832031 C49.67299133 44.29304413 49.68533813 45.30776794 49.69805908 46.35324097 C49.6695299 55.39306751 49.6695299 55.39306751 46.33251953 59.16113281 C43.46996753 60.11531681 41.63877325 60.29783079 38.66503906 60.32226562 C37.2480925 60.33667694 37.2480925 60.33667694 35.80252075 60.35137939 C34.78374847 60.35562927 33.7649762 60.35987915 32.71533203 60.36425781 C31.14137161 60.37280792 31.14137161 60.37280792 29.53561401 60.38153076 C27.31476856 60.39097968 25.09390909 60.39751431 22.87304688 60.40136719 C19.47777841 60.41107489 16.08311472 60.44210066 12.68798828 60.47363281 C10.53043979 60.48016277 8.37288698 60.48541327 6.21533203 60.48925781 C4.69324631 60.50777802 4.69324631 60.50777802 3.14041138 60.52667236 C-5.89941516 60.49814318 -5.89941516 60.49814318 -9.66748047 57.16113281 C-10.62166447 54.29858081 -10.80417844 52.46738653 -10.82861328 49.49365234 C-10.8430246 48.07670578 -10.8430246 48.07670578 -10.85772705 46.63113403 C-10.86197693 45.61236176 -10.86622681 44.59358948 -10.87060547 43.54394531 C-10.87630554 42.49463837 -10.88200562 41.44533142 -10.88787842 40.36422729 C-10.89732733 38.14338184 -10.90386197 35.92252237 -10.90771484 33.70166016 C-10.91742254 30.30639169 -10.94844831 26.911728 -10.97998047 23.51660156 C-10.98651042 21.35905307 -10.99176092 19.20150026 -10.99560547 17.04394531 C-11.00795227 16.0292215 -11.02029907 15.01449768 -11.03302002 13.96902466 C-11.00449083 4.92919812 -11.00449083 4.92919812 -7.66748047 1.16113281 C-4.80492846 0.20694881 -2.97373419 0.02443484 0 0 Z M-7.66748047 3.16113281 C-10.31071471 8.06027587 -9.9738255 13.50450491 -9.96826172 18.94238281 C-9.97254684 19.87409302 -9.97683197 20.80580322 -9.98124695 21.76574707 C-9.98697151 23.72907704 -9.98750437 25.69242822 -9.9831543 27.65576172 C-9.97999074 30.65141052 -10.00348943 33.6460744 -10.02880859 36.64160156 C-10.03108149 38.55436074 -10.03178513 40.46712256 -10.03076172 42.37988281 C-10.03997147 43.27066528 -10.04918121 44.16144775 -10.05867004 45.07922363 C-10.02181656 50.05554574 -9.91570437 54.13444212 -6.66748047 58.16113281 C-3.74718108 58.8618701 -1.60857938 59.1313966 1.33251953 59.16113281 C2.06570404 59.18742767 2.79888855 59.21372253 3.55429077 59.24081421 C5.93330053 59.30927561 8.30802401 59.32586372 10.68798828 59.32910156 C11.55265213 59.33242996 12.41731598 59.33575836 13.30818176 59.33918762 C15.12252271 59.34421827 16.93687279 59.34659715 18.7512207 59.34643555 C21.52261428 59.34863487 24.29361737 59.3668663 27.06494141 59.38574219 C28.83512235 59.38867439 30.60530516 59.39066034 32.37548828 59.39160156 C33.19953659 59.39878708 34.0235849 59.4059726 34.87260437 59.41337585 C40.96305491 59.54286992 40.96305491 59.54286992 46.33251953 57.16113281 C48.69902493 51.33868911 48.6289854 44.89996397 48.59814453 38.70800781 C48.60005798 37.84475891 48.60197144 36.98151001 48.60394287 36.09210205 C48.60529359 34.2837291 48.60167568 32.47534607 48.59326172 30.66699219 C48.58249329 27.90440186 48.59322177 25.14245395 48.60595703 22.37988281 C48.60463626 20.61425639 48.60207559 18.84863036 48.59814453 17.08300781 C48.60219299 16.26209656 48.60624146 15.4411853 48.6104126 14.59539795 C48.62207956 8.59006591 48.62207956 8.59006591 46.33251953 3.16113281 C41.38811717 0.62588477 36.19821676 0.87021649 30.77001953 0.89550781 C29.86050537 0.89359436 28.95099121 0.89168091 28.01391602 0.88970947 C26.09765342 0.88835304 24.18138147 0.89201149 22.26513672 0.90039062 C19.34207399 0.91109781 16.41962579 0.90047687 13.49658203 0.88769531 C11.62939318 0.889017 9.76220472 0.89157959 7.89501953 0.89550781 C6.59165649 0.88943512 6.59165649 0.88943512 5.26196289 0.88323975 C-1.43340109 0.92717962 -1.43340109 0.92717962 -7.66748047 3.16113281 Z " fill="#78A158" transform="translate(76.66748046875,1.8388671875)"/>
<path d="M0 0 C2.23654438 -0.00970091 4.47216746 -0.04073334 6.70849609 -0.07226562 C8.13687607 -0.07879678 9.5652626 -0.08404681 10.99365234 -0.08789062 C12.28899902 -0.09723633 13.5843457 -0.10658203 14.91894531 -0.11621094 C18.60660923 0.2639606 20.48897203 0.94929771 23.37646484 3.24023438 C25.14798808 8.55480408 24.60206774 14.2977105 24.61669922 19.86376953 C24.62640013 22.10031391 24.65743256 24.33593699 24.68896484 26.57226562 C24.695496 28.00064561 24.70074603 29.42903213 24.70458984 30.85742188 C24.7186084 32.80044189 24.7186084 32.80044189 24.73291016 34.78271484 C24.35273862 38.47037876 23.66740151 40.35274156 21.37646484 43.24023438 C16.06189514 45.01175761 10.31898872 44.46583727 4.75292969 44.48046875 C2.51638531 44.49016966 0.28076223 44.52120209 -1.95556641 44.55273438 C-3.38394639 44.55926553 -4.81233292 44.56451556 -6.24072266 44.56835938 C-7.53606934 44.57770508 -8.83141602 44.58705078 -10.16601562 44.59667969 C-13.85367955 44.21650815 -15.73604234 43.53117104 -18.62353516 41.24023438 C-20.39505839 35.92566467 -19.84913805 30.18275825 -19.86376953 24.61669922 C-19.87347044 22.38015484 -19.90450287 20.14453176 -19.93603516 17.90820312 C-19.94256631 16.47982314 -19.94781634 15.05143662 -19.95166016 13.62304688 C-19.96100586 12.3277002 -19.97035156 11.03235352 -19.97998047 9.69775391 C-19.59980893 6.01008999 -18.91447182 4.12772719 -16.62353516 1.24023438 C-11.30896545 -0.53128886 -5.56605904 0.01463148 0 0 Z M-16.62353516 3.24023438 C-19.64052377 9.3187468 -18.9536871 16.11016516 -18.93603516 22.74023438 C-18.95214844 23.95066406 -18.96826172 25.16109375 -18.98486328 26.40820312 C-18.98550781 27.57996094 -18.98615234 28.75171875 -18.98681641 29.95898438 C-18.98979736 31.02052734 -18.99277832 32.08207031 -18.99584961 33.17578125 C-18.55728118 36.78555891 -17.57039553 39.17690802 -15.62353516 42.24023438 C-12.69664444 42.97779749 -10.59005544 43.20994558 -7.62353516 43.24023438 C-6.22868896 43.28543213 -6.22868896 43.28543213 -4.80566406 43.33154297 C-1.68121384 43.41039503 1.43857301 43.42582516 4.56396484 43.42773438 C5.63066406 43.43998047 6.69736328 43.45222656 7.79638672 43.46484375 C8.82699219 43.46677734 9.85759766 43.46871094 10.91943359 43.47070312 C12.31198364 43.47686646 12.31198364 43.47686646 13.73266602 43.4831543 C16.68819257 43.21159192 18.77049697 42.66748109 21.37646484 41.24023438 C24.57549533 35.19307876 23.67547279 26.62264255 23.62646484 19.99023438 C23.63419922 18.92804687 23.64193359 17.86585937 23.64990234 16.77148438 C23.64603516 15.23234375 23.64603516 15.23234375 23.64208984 13.66210938 C23.63983398 12.74010742 23.63757812 11.81810547 23.63525391 10.86816406 C23.33818228 7.85148576 22.93222908 5.8585263 21.37646484 3.24023438 C17.35172834 1.3409366 13.72377559 0.98436559 9.31396484 0.97460938 C8.18732422 0.97203125 7.06068359 0.96945313 5.89990234 0.96679688 C4.73716797 0.97453125 3.57443359 0.98226563 2.37646484 0.99023438 C0.63236328 0.97863281 0.63236328 0.97863281 -1.14697266 0.96679688 C-2.27361328 0.969375 -3.40025391 0.97195312 -4.56103516 0.97460938 C-5.58068359 0.97686523 -6.60033203 0.97912109 -7.65087891 0.98144531 C-11.04499057 1.27692481 -13.55734714 1.72349628 -16.62353516 3.24023438 Z " fill="#78A158" transform="translate(21.62353515625,1.759765625)"/>
<path d="M0 0 C5.28 0 10.56 0 16 0 C16 3.96 16 7.92 16 12 C10.72 12 5.44 12 0 12 C0 8.04 0 4.08 0 0 Z " fill="#BFD36F" transform="translate(16,66)"/>
<path d="M0 0 C2.375 1.625 2.375 1.625 4 4 C4.61195145 7.6717087 4.48706506 9.28813568 2.375 12.375 C-0.71186432 14.48706506 -2.3282913 14.61195145 -6 14 C-8.375 12.375 -8.375 12.375 -10 10 C-10.61195145 6.3282913 -10.48706506 4.71186432 -8.375 1.625 C-5.28813568 -0.48706506 -3.6717087 -0.61195145 0 0 Z " fill="#8FB25D" transform="translate(59,49)"/>
<path d="M0 0 C1.71123047 -0.01836914 1.71123047 -0.01836914 3.45703125 -0.03710938 C4.55402344 -0.03904297 5.65101562 -0.04097656 6.78125 -0.04296875 C7.78220703 -0.04707764 8.78316406 -0.05118652 9.81445312 -0.05541992 C12.53855287 0.19098728 14.17443777 0.79209353 16.5 2.1875 C16.17 3.1775 15.84 4.1675 15.5 5.1875 C9.87268817 6.01692238 5.15875635 6.07514806 -0.5 5.1875 C-1.84262065 5.48119827 -3.17696283 5.8153958 -4.5 6.1875 C-9.33633791 6.45618544 -12.98675606 5.94876593 -17.5 4.1875 C-17.17 3.1975 -16.84 2.2075 -16.5 1.1875 C-11.46658925 -0.81101776 -5.3168175 0.00300385 0 0 Z " fill="#BFD36F" transform="translate(24.5,52.8125)"/>
<path d="M0 0 C0.99 0.33 1.98 0.66 3 1 C4.26496809 10.17101862 5.12565229 19.91480465 3 29 C2.814375 29.928125 2.62875 30.85625 2.4375 31.8125 C2.293125 32.534375 2.14875 33.25625 2 34 C1.34 34 0.68 34 0 34 C-2.16848429 29.15279983 -1.97423229 25.48205965 -1.2890625 20.3671875 C-0.8529522 16.79579771 -1.05235452 13.67540195 -1.625 10.125 C-2.14864232 6.29452059 -1.52653735 3.59185258 0 0 Z " fill="#BFD36F" transform="translate(55,8)"/>
<path d="M0 0 C2.375 0.125 2.375 0.125 5 1 C8.15575075 5.03845851 8.38514262 8.27310616 8.3984375 13.3125 C8.40274277 14.3495105 8.40274277 14.3495105 8.40713501 15.4074707 C8.40916839 16.86312687 8.40368938 18.31881081 8.39111328 19.77441406 C8.37504732 21.99346425 8.39098461 24.21069347 8.41015625 26.4296875 C8.40817369 27.84896232 8.40432974 29.26823602 8.3984375 30.6875 C8.39505371 31.97011719 8.39166992 33.25273438 8.38818359 34.57421875 C7.97531465 38.21785208 7.23158671 40.11984379 5 43 C2.5 44 2.5 44 0 44 C-2.53844009 42.18682851 -2.99489025 41.01532925 -4 38 C-4.22863301 33.46128843 -4.22829025 28.9202099 -4.24023438 24.37646484 C-4.24993528 22.13992047 -4.28096772 19.90429739 -4.3125 17.66796875 C-4.31903116 16.23958877 -4.32428119 14.81120224 -4.328125 13.3828125 C-4.3374707 12.08746582 -4.34681641 10.79211914 -4.35644531 9.45751953 C-3.94769575 5.49264877 -2.83657259 2.83657259 0 0 Z M0 2 C-4.15193083 8.22789624 -3.2194814 15.11157407 -3.25 22.375 C-3.270625 23.59445313 -3.29125 24.81390625 -3.3125 26.0703125 C-3.31765625 27.25109375 -3.3228125 28.431875 -3.328125 29.6484375 C-3.3374707 30.72270996 -3.34681641 31.79698242 -3.35644531 32.90380859 C-2.94614588 36.46779314 -1.76182647 38.90023204 0 42 C2.475 41.505 2.475 41.505 5 41 C6.89529924 33.80989653 7.30481592 27.16842057 7.25 19.75 C7.25773437 18.6878125 7.26546875 17.625625 7.2734375 16.53125 C7.27085938 15.50515625 7.26828125 14.4790625 7.265625 13.421875 C7.26336914 12.49987305 7.26111328 11.57787109 7.25878906 10.62792969 C6.97279418 7.72373255 6.3431131 5.58906483 5 3 C2.45224694 2.10613836 2.45224694 2.10613836 0 2 Z " fill="#78A158" transform="translate(54,2)"/>
<path d="M0 0 C1.2375 0.0825 2.475 0.165 3.75 0.25 C7 1 7 1 8.9375 3.5625 C9.288125 4.366875 9.63875 5.17125 10 6 C8.875 8.5 8.875 8.5 7 11 C3.8125 11.3125 3.8125 11.3125 1 11 C0.34 9.35 -0.32 7.7 -1 6 C-0.01 6 0.98 6 2 6 C2 6.66 2 7.32 2 8 C3.32 8 4.64 8 6 8 C5.67 7.01 5.34 6.02 5 5 C-0.61 4.67 -6.22 4.34 -12 4 C-12 3.01 -12 2.02 -12 1 C-7.61930102 -1.25672372 -4.77469185 -0.90554501 0 0 Z " fill="#92B45E" transform="translate(140,58)"/>
<path d="M0 0 C2.9375 0.8125 2.9375 0.8125 4.9375 3.8125 C4.75 6.875 4.75 6.875 3.9375 9.8125 C0.9375 11.8125 0.9375 11.8125 -2.125 11.625 C-5.0625 10.8125 -5.0625 10.8125 -7.0625 7.8125 C-6.875 4.75 -6.875 4.75 -6.0625 1.8125 C-3.0625 -0.1875 -3.0625 -0.1875 0 0 Z " fill="#8BAF5C" transform="translate(57.0625,66.1875)"/>
<path d="M0 0 C2.9375 0.8125 2.9375 0.8125 4.9375 3.8125 C4.75 6.875 4.75 6.875 3.9375 9.8125 C0.9375 11.8125 0.9375 11.8125 -2.125 11.625 C-5.0625 10.8125 -5.0625 10.8125 -7.0625 7.8125 C-6.875 4.75 -6.875 4.75 -6.0625 1.8125 C-3.0625 -0.1875 -3.0625 -0.1875 0 0 Z " fill="#8BAF5C" transform="translate(41.0625,66.1875)"/>
<path d="M0 0 C2.875 1 2.875 1 4.3125 2.75 C5.03376843 5.63507371 4.97057154 7.2245521 3.875 10 C1.19009973 11.59642719 -0.33934929 12.12740282 -3.4375 11.625 C-3.994375 11.41875 -4.55125 11.2125 -5.125 11 C-5.785 8.69 -6.445 6.38 -7.125 4 C-4.7645388 1.00403002 -3.91304326 0 0 0 Z M-2.125 4 C-2.125 5.32 -2.125 6.64 -2.125 8 C-1.135 7.67 -0.145 7.34 0.875 7 C0.545 6.01 0.215 5.02 -0.125 4 C-0.785 4 -1.445 4 -2.125 4 Z " fill="#9ABA60" transform="translate(97.125,26)"/>
<path d="M0 0 C0.99 0 1.98 0 3 0 C2.875 1.875 2.875 1.875 2 4 C-3.81037716 6.83069656 -11.76327473 7.91125452 -18 6 C-18 4.68 -18 3.36 -18 2 C-16.17662109 1.90912109 -16.17662109 1.90912109 -14.31640625 1.81640625 C-12.73175772 1.73201668 -11.14712298 1.6473679 -9.5625 1.5625 C-8.76005859 1.52318359 -7.95761719 1.48386719 -7.13085938 1.44335938 C-3.24760439 1.5945704 -3.24760439 1.5945704 0 0 Z " fill="#94B65F" transform="translate(146,0)"/>
<path d="M0 0 C1.75 1.25 1.75 1.25 2.75 2.25 C2.9375 5.1875 2.9375 5.1875 2.75 8.25 C0.75 10.25 0.75 10.25 -2.25 10.5 C-5.25 10.25 -5.25 10.25 -7.25 8.25 C-7.6875 5.3125 -7.6875 5.3125 -7.25 2.25 C-4.64828291 -0.06263741 -3.41092103 -1.13697368 0 0 Z M-3.25 3.25 C-3.25 4.57 -3.25 5.89 -3.25 7.25 C-2.26 6.92 -1.27 6.59 -0.25 6.25 C-0.58 5.26 -0.91 4.27 -1.25 3.25 C-1.91 3.25 -2.57 3.25 -3.25 3.25 Z " fill="#92B45E" transform="translate(146.25,26.75)"/>
<path d="M0 0 C1.875 0.625 1.875 0.625 4 2 C5.25 5.125 5.25 5.125 6 8 C4.68 9.32 3.36 10.64 2 12 C-0.9375 11.25 -0.9375 11.25 -4 10 C-4.875 7.875 -4.875 7.875 -5 6 C-2.03 6.495 -2.03 6.495 1 7 C0.67 4.69 0.34 2.38 0 0 Z " fill="#98B960" transform="translate(144,42)"/>
<path d="M0 0 C1.32 0 2.64 0 4 0 C4 5.28 4 10.56 4 16 C3.01 16 2.02 16 1 16 C-0.82727794 11.48554863 -1.02891549 8.73301124 0 4 C0 2.68 0 1.36 0 0 Z " fill="#92B45E" transform="translate(122,64)"/>
<path d="M0 0 C1.99965715 0.03703069 4.00056665 0.04760556 6 0 C6.33 1.32 6.66 2.64 7 4 C1.72 4 -3.56 4 -9 4 C-9 3.01 -9 2.02 -9 1 C-5.23802798 -1.50798135 -4.29726444 -0.84260087 0 0 Z " fill="#93B55E" transform="translate(25,74)"/>
<path d="M0 0 C0.99 0 1.98 0 3 0 C5.16395112 7.63747454 5.16395112 7.63747454 4 12 C4.33 12.66 4.66 13.32 5 14 C4.67 14.66 4.34 15.32 4 16 C2.68 16 1.36 16 0 16 C0 10.72 0 5.44 0 0 Z " fill="#92B45E" transform="translate(66,64)"/>
<path d="M0 0 C0.99 0 1.98 0 3 0 C3.06058594 0.61488281 3.12117187 1.22976562 3.18359375 1.86328125 C3.26738281 2.67152344 3.35117188 3.47976562 3.4375 4.3125 C3.51871094 5.11300781 3.59992187 5.91351563 3.68359375 6.73828125 C3.95265693 9.16087179 3.95265693 9.16087179 5 12 C4.0625 14.1875 4.0625 14.1875 3 16 C2.01 16 1.02 16 0 16 C0 10.72 0 5.44 0 0 Z " fill="#94B65F" transform="translate(2,64)"/>
<path d="M0 0 C2.4375 0.8125 2.4375 0.8125 4.4375 2.8125 C4.4375 3.8025 4.4375 4.7925 4.4375 5.8125 C1.4675 5.3175 1.4675 5.3175 -1.5625 4.8125 C-1.8925 5.8025 -2.2225 6.7925 -2.5625 7.8125 C-1.9025 7.8125 -1.2425 7.8125 -0.5625 7.8125 C-0.5625 8.8025 -0.5625 9.7925 -0.5625 10.8125 C-4.4375 9.9375 -4.4375 9.9375 -5.5625 8.8125 C-6.01941383 3.55799098 -6.01941383 3.55799098 -4.375 0.875 C-2.5625 -0.1875 -2.5625 -0.1875 0 0 Z " fill="#99BA60" transform="translate(160.5625,58.1875)"/>
<path d="M0 0 C5.28 0 10.56 0 16 0 C15.67 1.32 15.34 2.64 15 4 C14.34 3.67 13.68 3.34 13 3 C12.67 3.66 12.34 4.32 12 5 C12 4.34 12 3.68 12 3 C11.113125 3.165 10.22625 3.33 9.3125 3.5 C6.46403108 3.92995757 3.86995198 4.08441035 1 4 C0.67 2.68 0.34 1.36 0 0 Z " fill="#93B55E" transform="translate(16,66)"/>
<path d="M0 0 C0.99 0 1.98 0 3 0 C3 5.28 3 10.56 3 16 C2.01 16 1.02 16 0 16 C-0.06058594 15.38511719 -0.12117187 14.77023438 -0.18359375 14.13671875 C-0.26738281 13.32847656 -0.35117188 12.52023438 -0.4375 11.6875 C-0.51871094 10.88699219 -0.59992187 10.08648437 -0.68359375 9.26171875 C-0.95265693 6.83912821 -0.95265693 6.83912821 -2 4 C-1.0625 1.8125 -1.0625 1.8125 0 0 Z " fill="#93B55E" transform="translate(11,64)"/>
<path d="M0 0 C-0.185625 1.134375 -0.37125 2.26875 -0.5625 3.4375 C-0.7790625 5.2009375 -0.7790625 5.2009375 -1 7 C-0.67 7.33 -0.34 7.66 0 8 C0.04063832 9.66617115 0.042721 11.33388095 0 13 C-5.875 9.25 -5.875 9.25 -7 7 C-6.8125 4.5 -6.8125 4.5 -6 2 C-3.84898936 0.54286376 -2.59713506 0 0 0 Z " fill="#9BBB60" transform="translate(176,42)"/>
<path d="M0 0 C1.875 2.5625 1.875 2.5625 3 5 C-1.66666667 5 -6.33333333 5 -11 5 C-7.87872275 -0.53317332 -6.38733971 -1.8249542 0 0 Z " fill="#9BBB60" transform="translate(100,11)"/>
<path d="M0 0 C0.33 1.65 0.66 3.3 1 5 C-0.65 5.66 -2.3 6.32 -4 7 C-5.5625 5.75 -5.5625 5.75 -7 4 C-6.8125 1.875 -6.8125 1.875 -6 0 C-3.50907189 -1.24546405 -2.58919267 -0.7767578 0 0 Z " fill="#BED26F" transform="translate(59,53)"/>
<path d="M0 0 C-0.185625 1.0725 -0.37125 2.145 -0.5625 3.25 C-0.9304568 6.40391546 -1.04465343 8.09818492 0 11 C-0.99 11 -1.98 11 -3 11 C-4.8125 8.8125 -4.8125 8.8125 -6 6 C-5.3125 3.25 -5.3125 3.25 -4 1 C-2 0 -2 0 0 0 Z " fill="#9ABA60" transform="translate(160,10)"/>
<path d="M0 0 C1.051875 0.185625 2.10375 0.37125 3.1875 0.5625 C6.57119882 0.95079331 8.76425888 0.88247485 12 0 C10.8125 2.4375 10.8125 2.4375 9 5 C6.3125 5.8125 6.3125 5.8125 4 6 C0 1.125 0 1.125 0 0 Z " fill="#9ABA60" transform="translate(90,48)"/>
<path d="M0 0 C1.9375 0.375 1.9375 0.375 4 1 C5.41441874 3.82883747 5.31900332 5.87376745 5 9 C3 10.875 3 10.875 1 12 C-0.15346355 7.96287759 0 4.19038946 0 0 Z " fill="#98B960" transform="translate(128,26)"/>
<path d="M0 0 C2.00720923 0.28674418 4.0085944 0.61866701 6 1 C6.5625 2.9375 6.5625 2.9375 7 5 C6 6 6 6 2.9375 6.0625 C1.968125 6.041875 0.99875 6.02125 0 6 C-0.38218767 4.34385343 -0.71395102 2.67542976 -1 1 C-0.67 0.67 -0.34 0.34 0 0 Z " fill="#A4C263" transform="translate(99,83)"/>
<path d="M0 0 C2.00720923 0.28674418 4.0085944 0.61866701 6 1 C6.5625 2.9375 6.5625 2.9375 7 5 C6 6 6 6 2.9375 6.0625 C1.968125 6.041875 0.99875 6.02125 0 6 C-0.38218767 4.34385343 -0.71395102 2.67542976 -1 1 C-0.67 0.67 -0.34 0.34 0 0 Z " fill="#A4C263" transform="translate(51,83)"/>
<path d="M0 0 C2.31 0.66 4.62 1.32 7 2 C7.33 3.32 7.66 4.64 8 6 C6.68 6 5.36 6 4 6 C4 5.34 4 4.68 4 4 C2.68 4 1.36 4 0 4 C0 4.66 0 5.32 0 6 C-0.99 6 -1.98 6 -3 6 C-2.42655063 3.13275314 -2.1385485 2.1385485 0 0 Z " fill="#9BBB60" transform="translate(142,74)"/>
<path d="M0 0 C0.928125 0.165 1.85625 0.33 2.8125 0.5 C5.74559187 0.96009284 7.25741623 0.94935592 10 0 C9.6875 1.875 9.6875 1.875 9 4 C6 6 6 6 2 6 C0.25 3.5 0.25 3.5 -1 1 C-0.67 0.67 -0.34 0.34 0 0 Z " fill="#99B960" transform="translate(155,32)"/>
<path d="M0 0 C4.875 2.75 4.875 2.75 6 5 C4.88292386 8.72358715 4.3270336 9.7819776 1 12 C-0.15346355 7.96287759 0 4.19038946 0 0 Z " fill="#99B960" transform="translate(112,26)"/>
<path d="M0 0 C1.20144217 4.20504758 1.20144217 7.79495242 0 12 C-2.78388975 10.29374499 -3.85384206 9.52373261 -4.75 6.3125 C-4.8325 5.549375 -4.915 4.78625 -5 4 C-3.35 2.68 -1.7 1.36 0 0 Z " fill="#99B960" transform="translate(79,26)"/>
<path d="M0 0 C2.33944736 0.28730055 4.6739143 0.61936779 7 1 C7 2.32 7 3.64 7 5 C4.69 5 2.38 5 0 5 C-0.5625 3.0625 -0.5625 3.0625 -1 1 C-0.67 0.67 -0.34 0.34 0 0 Z " fill="#D2E077" transform="translate(118,99)"/>
<path d="M0 0 C2.33944736 0.28730055 4.6739143 0.61936779 7 1 C7 2.32 7 3.64 7 5 C4.69 5 2.38 5 0 5 C-0.5625 3.0625 -0.5625 3.0625 -1 1 C-0.67 0.67 -0.34 0.34 0 0 Z " fill="#D2E077" transform="translate(70,99)"/>
<path d="M0 0 C0.5625 1.9375 0.5625 1.9375 1 4 C0 5 0 5 -3.5625 5.0625 C-4.696875 5.041875 -5.83125 5.02125 -7 5 C-7 3.68 -7 2.36 -7 1 C-4.53721199 -0.231394 -2.7204945 -0.07159196 0 0 Z " fill="#A4C263" transform="translate(123,82)"/>
<path d="M0 0 C0.5625 1.9375 0.5625 1.9375 1 4 C0 5 0 5 -3.5625 5.0625 C-4.696875 5.041875 -5.83125 5.02125 -7 5 C-7 3.68 -7 2.36 -7 1 C-4.53721199 -0.231394 -2.7204945 -0.07159196 0 0 Z " fill="#A4C263" transform="translate(75,82)"/>
<path d="M0 0 C2.3125 1.8125 2.3125 1.8125 3.3125 4.8125 C1.70375 4.5340625 1.70375 4.5340625 0.0625 4.25 C-3.09141546 3.8820432 -4.78568492 3.76784657 -7.6875 4.8125 C-7.3353759 2.17156923 -7.03021564 1.09401642 -4.9375 -0.625 C-2.6875 -1.1875 -2.6875 -1.1875 0 0 Z " fill="#98B960" transform="translate(98.6875,75.1875)"/>
<path d="M0 0 C0.886875 0.185625 1.77375 0.37125 2.6875 0.5625 C5.85178811 0.98042484 7.94839642 0.80777742 11 0 C9.95125002 2.62187494 9.35068687 3.79371361 6.875 5.25 C6.25625 5.4975 5.6375 5.745 5 6 C3.2925002 4.71937515 1.62626404 3.38232443 0 2 C0 1.34 0 0.68 0 0 Z " fill="#97B85F" transform="translate(91,64)"/>
<path d="M0 0 C0 0.66 0 1.32 0 2 C-3.96 2 -7.92 2 -12 2 C-12 1.34 -12 0.68 -12 0 C-7.44729118 -2.48329572 -4.775353 -1.68541871 0 0 Z " fill="#A4C263" transform="translate(140,59)"/>
<path d="M0 0 C0 1.32 0 2.64 0 4 C-1.875 4.625 -1.875 4.625 -4 5 C-4.66 4.34 -5.32 3.68 -6 3 C-6 2.01 -6 1.02 -6 0 C-3.50907189 -1.24546405 -2.58919267 -0.7767578 0 0 Z " fill="#BDD26E" transform="translate(59,70)"/>
<path d="M0 0 C1.32 0.66 2.64 1.32 4 2 C3.67 3.32 3.34 4.64 3 6 C1.35 5.67 -0.3 5.34 -2 5 C-1.125 1.125 -1.125 1.125 0 0 Z " fill="#BED26F" transform="translate(39,69)"/>
<path d="M0 0 C-0.33 1.65 -0.66 3.3 -1 5 C-2.65 5.33 -4.3 5.66 -6 6 C-3.84615385 0 -3.84615385 0 0 0 Z " fill="#9BBB60" transform="translate(80,10)"/>
<path d="M0 0 C1.65 0 3.3 0 5 0 C5 1.32 5 2.64 5 4 C3.35 4 1.7 4 0 4 C0 2.68 0 1.36 0 0 Z " fill="#D2E077" transform="translate(99,99)"/>
<path d="M0 0 C1.65 0 3.3 0 5 0 C5 1.32 5 2.64 5 4 C3.35 4 1.7 4 0 4 C0 2.68 0 1.36 0 0 Z " fill="#D2E077" transform="translate(51,99)"/>
<path d="M0 0 C0.66 0 1.32 0 2 0 C1.95875 0.928125 1.9175 1.85625 1.875 2.8125 C1.72863661 6.15809719 1.72863661 6.15809719 4 9 C0.125 8.125 0.125 8.125 -1 7 C-1.125 4 -1.125 4 -1 1 C-0.67 0.67 -0.34 0.34 0 0 Z " fill="#A4C263" transform="translate(140,28)"/>
<path d="M0 0 C-0.33 0.99 -0.66 1.98 -1 3 C-2.65 3 -4.3 3 -6 3 C-6.33 2.01 -6.66 1.02 -7 0 C-4.3333581 -1.33332095 -2.83319697 -0.67102033 0 0 Z " fill="#D2E077" transform="translate(110,105)"/>
<path d="M0 0 C-0.33 0.99 -0.66 1.98 -1 3 C-2.65 3 -4.3 3 -6 3 C-6.33 2.01 -6.66 1.02 -7 0 C-4.3333581 -1.33332095 -2.83319697 -0.67102033 0 0 Z " fill="#D2E077" transform="translate(62,105)"/>
<path d="M0 0 C0.99 0.33 1.98 0.66 3 1 C3 1.99 3 2.98 3 4 C2.34 4 1.68 4 1 4 C1 4.66 1 5.32 1 6 C0.01 6 -0.98 6 -2 6 C-1.125 1.125 -1.125 1.125 0 0 Z " fill="#9CBC61" transform="translate(157,74)"/>
<path d="M0 0 C0.99 0 1.98 0 3 0 C3 1.32 3 2.64 3 4 C1.35 4.66 -0.3 5.32 -2 6 C-1.125 1.125 -1.125 1.125 0 0 Z " fill="#9ABA60" transform="translate(114,48)"/>
<path d="M0 0 C3 1 3 1 4.1875 3.0625 C4.455625 3.701875 4.72375 4.34125 5 5 C3.125 5.625 3.125 5.625 1 6 C0.34 5.34 -0.32 4.68 -1 4 C-0.625 1.875 -0.625 1.875 0 0 Z " fill="#9ABA60" transform="translate(113,10)"/>
<path d="M0 0 C1.32 0.33 2.64 0.66 4 1 C4.33 2.65 4.66 4.3 5 6 C3.68 5.67 2.36 5.34 1 5 C0.67 3.35 0.34 1.7 0 0 Z " fill="#9ABA60" transform="translate(128,10)"/>
<path d="M0 0 C4.875 2.625 4.875 2.625 6 6 C4.35 5.67 2.7 5.34 1 5 C0.67 3.35 0.34 1.7 0 0 Z " fill="#99BA60" transform="translate(112,74)"/>
<path d="M0 0 C1.32 0.33 2.64 0.66 4 1 C4.33 2.32 4.66 3.64 5 5 C4.01 5.33 3.02 5.66 2 6 C0 3 0 3 0 0 Z " fill="#99BA60" transform="translate(75,48)"/>
<path d="M0 0 C1.65 0.33 3.3 0.66 5 1 C4.67 1.99 4.34 2.98 4 4 C2.35 3.67 0.7 3.34 -1 3 C-0.67 2.01 -0.34 1.02 0 0 Z " fill="#D2E077" transform="translate(115,105)"/>
<path d="M0 0 C1.65 0.33 3.3 0.66 5 1 C4.67 1.99 4.34 2.98 4 4 C2.35 3.67 0.7 3.34 -1 3 C-0.67 2.01 -0.34 1.02 0 0 Z " fill="#D2E077" transform="translate(67,105)"/>
<path d="M0 0 C1.65 0.33 3.3 0.66 5 1 C4.67 1.99 4.34 2.98 4 4 C2.35 3.67 0.7 3.34 -1 3 C-0.67 2.01 -0.34 1.02 0 0 Z " fill="#A4C263" transform="translate(105,90)"/>
<path d="M0 0 C1.65 0.33 3.3 0.66 5 1 C4.67 1.99 4.34 2.98 4 4 C2.35 3.67 0.7 3.34 -1 3 C-0.67 2.01 -0.34 1.02 0 0 Z " fill="#A4C263" transform="translate(57,90)"/>
<path d="M0 0 C1.65 0.33 3.3 0.66 5 1 C4.67 1.99 4.34 2.98 4 4 C2.35 3.67 0.7 3.34 -1 3 C-0.67 2.01 -0.34 1.02 0 0 Z " fill="#A4C263" transform="translate(114,89)"/>
<path d="M0 0 C1.65 0.33 3.3 0.66 5 1 C4.67 1.99 4.34 2.98 4 4 C2.35 3.67 0.7 3.34 -1 3 C-0.67 2.01 -0.34 1.02 0 0 Z " fill="#A4C263" transform="translate(66,89)"/>
<path d="M0 0 C1.65 1.65 3.3 3.3 5 5 C3.68 5.33 2.36 5.66 1 6 C1 5.34 1 4.68 1 4 C0.34 4 -0.32 4 -1 4 C-0.67 2.68 -0.34 1.36 0 0 Z " fill="#9BBB60" transform="translate(129,74)"/>
<path d="M0 0 C2.125 0.375 2.125 0.375 4 1 C2.35 2.65 0.7 4.3 -1 6 C-1.625 4.125 -1.625 4.125 -2 2 C-1.34 1.34 -0.68 0.68 0 0 Z " fill="#99B960" transform="translate(114,64)"/>
<path d="M0 0 C0.99 0 1.98 0 3 0 C2.6875 1.875 2.6875 1.875 2 4 C1.01 4.66 0.02 5.32 -1 6 C-1.625 4.125 -1.625 4.125 -2 2 C-1.34 1.34 -0.68 0.68 0 0 Z " fill="#96B85F" transform="translate(130,48)"/>
<path d="M0 0 C2.0625 0.4375 2.0625 0.4375 4 1 C4.33 2.32 4.66 3.64 5 5 C3.125 4.6875 3.125 4.6875 1 4 C0.34 3.01 -0.32 2.02 -1 1 C-0.67 0.67 -0.34 0.34 0 0 Z " fill="#99B960" transform="translate(171,32)"/>
<path d="M0 0 C0.99 0 1.98 0 3 0 C2.67 1.32 2.34 2.64 2 4 C0.68 4.33 -0.64 4.66 -2 5 C-1.125 1.125 -1.125 1.125 0 0 Z " fill="#98B960" transform="translate(173,59)"/>
<path d="M0 0 C1.32 0.33 2.64 0.66 4 1 C2.71034824 2.37562854 1.37310707 3.70766393 0 5 C-0.66 5 -1.32 5 -2 5 C-2 4.01 -2 3.02 -2 2 C-1.34 2 -0.68 2 0 2 C0 1.34 0 0.68 0 0 Z " fill="#9ABA60" transform="translate(130,64)"/>
<path d="M0 0 C-0.33 1.32 -0.66 2.64 -1 4 C-2.32 4.33 -3.64 4.66 -5 5 C-4.625 3.0625 -4.625 3.0625 -4 1 C-2 0 -2 0 0 0 Z " fill="#97B85F" transform="translate(144,11)"/>
<path d="M0 0 C-0.33 1.32 -0.66 2.64 -1 4 C-2.32 4.33 -3.64 4.66 -5 5 C-4.625 3.0625 -4.625 3.0625 -4 1 C-2 0 -2 0 0 0 Z " fill="#97B85F" transform="translate(80,75)"/>
<path d="M0 0 C1.98 0.495 1.98 0.495 4 1 C3.67 1.99 3.34 2.98 3 4 C1.68 3.67 0.36 3.34 -1 3 C-0.67 2.01 -0.34 1.02 0 0 Z " fill="#D2E077" transform="translate(98,107)"/>
<path d="M0 0 C1.98 0.495 1.98 0.495 4 1 C3.67 1.99 3.34 2.98 3 4 C1.68 3.67 0.36 3.34 -1 3 C-0.67 2.01 -0.34 1.02 0 0 Z " fill="#A4C263" transform="translate(122,88)"/>
<path d="M0 0 C0.99 0.33 1.98 0.66 3 1 C2.67 1.66 2.34 2.32 2 3 C1.01 2.67 0.02 2.34 -1 2 C-0.67 1.34 -0.34 0.68 0 0 Z " fill="#EAE178" transform="translate(151,87)"/>
<path d="" fill="#A4C263" transform="translate(0,0)"/>
<path d="" fill="#A4C263" transform="translate(0,0)"/>
<path d="" fill="#A4C263" transform="translate(0,0)"/>
<path d="" fill="#E8EEAA" transform="translate(0,0)"/>
<path d="" fill="#E8EEAA" transform="translate(0,0)"/>
<path d="" fill="#E8EEAA" transform="translate(0,0)"/>
</svg>
