<svg width="75" height="75" viewBox="0 0 75 75" fill="none" xmlns="http://www.w3.org/2000/svg">
<path d="M25 6.25H18.75V9.375H15.625V12.5H12.5V15.625H9.375V18.75H6.25V25H3.125V50H6.25V56.25H9.375V59.375H12.5V62.5H15.625V65.625H18.75V68.75H25V71.875H50V68.75H56.25V65.625H59.375V62.5H62.5V59.375H65.625V56.25H68.75V50H71.875V25H68.75V18.75H65.625V15.625H62.5V12.5H59.375V9.375H56.25V6.25H50V3.125H25V6.25ZM50 12.5H56.25V15.625H59.375V18.75H62.5V25H65.625V50H62.5V56.25H59.375V59.375H56.25V62.5H50V65.625H25V62.5H18.75V59.375H15.625V56.25H12.5V50H9.375V25H12.5V18.75H15.625V15.625H18.75V12.5H25V9.375H50V12.5Z" fill="black"/>
<path d="M34.375 15.625H37.5V18.75H40.625V21.875H37.5V25H34.375V28.125H31.25V31.25H28.125V34.375H59.375V40.625H28.125V43.75H31.25V46.875H34.375V50H37.5V53.125H40.625V56.25H37.5V59.375H34.375V56.25H31.25V53.125H28.125V50H25V46.875H21.875V43.75H18.75V40.625H15.625V34.375H18.75V31.25H21.875V28.125H25V25H28.125V21.875H31.25V18.75H34.375V15.625Z" fill="black"/>
</svg>
